<svg id="레이어_1" data-name="레이어 1" xmlns="http://www.w3.org/2000/svg" viewBox="0 0 154.08 150"><defs><style>.cls-1{fill:#d1fb6e;}.cls-2{fill:#febbaa;}.cls-3{fill:#005ecd;}.cls-4{fill:#004fab;}.cls-5{fill:#5eab24;}.cls-6{fill:#4e8f1e;}.cls-7{fill:#fe9478;}.cls-8{fill:#f0f1f1;}</style></defs><path class="cls-1" d="M47.19,17.43a5.63,5.63,0,0,1,1.86.88c8,4.7,16.14,5.1,24.3.73a6.78,6.78,0,0,1,7.32,0c8,4.32,16.07,4,24-.49.61-.35,1.22-.68,1.84-1,.06,0,.16,0,.26,0,.24.32.12.7.12,1,0,8.15.1,16.3,0,24.45A47.09,47.09,0,0,1,96.62,71.88,51.53,51.53,0,0,1,79.85,85.53a5.31,5.31,0,0,1-5.7,0c-10.31-5.36-18.08-13.1-22.86-23.74a47.33,47.33,0,0,1-3.88-14.51c-.35-3.38-.19-6.76-.21-10.14-.05-6.08,0-12.16,0-18.25Z"/><path class="cls-2" d="M87,116.62c0-5.38,0-10.76,0-16.14,0-6.55,2.65-11.53,8.33-14.86,4.1-2.39,8.24-4.72,12.28-7.23,3-1.85,6.45-1.78,9.1,1.7a5.41,5.41,0,0,0,.77-2.15c1.63-6,3.22-12.11,4.83-18.16,1.22-4.56,5.9-6.38,9.59-3.74A5.84,5.84,0,0,1,134,62.11q-3.56,13.38-7.16,26.75a39.16,39.16,0,0,0-1.07,4.06c-.44,2.91-2.18,4.92-4.31,6.72-2.59,2.18-5.17,4.36-7.74,6.57a8,8,0,0,0-2.9,6.56c0,1.28,0,2.57,0,3.85-.43.51-1,.45-1.61.45q-10.31,0-20.61,0A1.87,1.87,0,0,1,87,116.62Z"/><path class="cls-2" d="M43.26,116.62c0-1.24,0-2.49,0-3.72.12-3.13-1.31-5.44-3.64-7.37-2.79-2.31-5.52-4.71-8.28-7.08a9.3,9.3,0,0,1-2.9-4.92c-2.73-10.36-5.54-20.7-8.28-31.06A5.88,5.88,0,0,1,24.4,55a6.07,6.07,0,0,1,7.2,4.37C33,64.15,34.24,69,35.55,73.87c.55,2.06,1.11,4.11,1.71,6.33a16.1,16.1,0,0,1,2-2,5.69,5.69,0,0,1,6.32-.29c4.74,2.7,9.49,5.38,14.11,8.27a15.15,15.15,0,0,1,7.35,13.16c.13,5.74,0,11.5,0,17.25a1.87,1.87,0,0,1-1.61.45q-10.31,0-20.61,0C44.3,117.07,43.69,117.13,43.26,116.62Z"/><path class="cls-3" d="M73,122.61c0,3,0,6,.06,8.93,0,.81-.21,1-1,1-6.21,0-12.41,0-18.61,0-5,0-10,0-15,0-.93,0-1.18-.22-1.16-1.15.08-2.93,0-5.87.07-8.81a2.13,2.13,0,0,1,1.64-.4H71.37A2.15,2.15,0,0,1,73,122.61Z"/><path class="cls-3" d="M116.71,122.61c0,3,0,6,.06,8.93,0,.81-.21,1-1,1-6.29,0-12.57,0-18.86,0-5,0-9.92,0-14.89,0-.81,0-1-.22-1-1,.06-3,0-5.95.06-8.93a2.15,2.15,0,0,1,1.64-.4h32.39A2.14,2.14,0,0,1,116.71,122.61Z"/><path class="cls-4" d="M73,122.61H37.34c0-1.73,0-3.46-.05-5.2,0-.59.17-.77.76-.76,1.74,0,3.47,0,5.21,0H67.09c1.69,0,3.39.06,5.08,0,.7,0,.92.19.9.9C73,119.23,73,120.92,73,122.61Z"/><path class="cls-4" d="M116.71,122.61H81c0-1.73,0-3.46-.05-5.2,0-.59.18-.77.77-.76,1.73,0,3.46,0,5.2,0h23.83c1.7,0,3.39.06,5.08,0,.7,0,.92.19.9.9C116.71,119.23,116.73,120.92,116.71,122.61Z"/><path class="cls-5" d="M73.28,75.73A37.23,37.23,0,0,1,60.79,62.9a38.69,38.69,0,0,1-5.68-21.1c.07-3.72,0-7.44,0-11.17,0-1,.07-1.43,1.33-1.2A31.24,31.24,0,0,0,76.26,26.5a1.37,1.37,0,0,1,1.4-.06A34.9,34.9,0,0,0,90.94,30a1.46,1.46,0,0,1,.36,1c0,2.41.13,4.82-.06,7.23a.71.71,0,0,1-.92.59,2.63,2.63,0,0,0-2.5,1Q81.18,46.55,74.5,53.2c-1.37,1.36-1.53,1.36-2.88,0s-2.8-2.81-4.21-4.21a3.61,3.61,0,0,0-1-.79,1.63,1.63,0,0,0-2.23,2.32,4.49,4.49,0,0,0,.81.94l6.13,6.13c1.51,1.5,2.25,1.51,3.74,0Q82.25,50.33,89.56,43c.39-.38.7-1.09,1.49-.75.57,1.85.09,3.7-.16,5.51a39,39,0,0,1-9,20.34A35.3,35.3,0,0,1,73.28,75.73Z"/><path class="cls-6" d="M73.28,75.73c.66-1.21,2-1.69,3-2.53A42.52,42.52,0,0,0,85.76,62a40.28,40.28,0,0,0,4.87-14.54,20.33,20.33,0,0,0,.27-5.29,3.84,3.84,0,0,0,0-3.34c0-2.92,0-5.85,0-8.77a38.36,38.36,0,0,0,7.25-.67c.61-.12.75.1.73.61-.26,7.52.82,15.12-1.24,22.54A39.72,39.72,0,0,1,78,77.47a1.74,1.74,0,0,1-2,0C75.11,76.85,74.19,76.3,73.28,75.73Z"/><path class="cls-7" d="M117.17,82.62a5.69,5.69,0,0,1-2.69,5.48c-3.33,2.06-6.75,4-10.12,6-.62.36-.87.06-1.13-.45s-.49-1,.29-1.38c3.08-1.66,6.1-3.45,9.21-5.06A8.32,8.32,0,0,0,117.17,82.62Z"/><path class="cls-7" d="M36.9,82.63c.86,3,3.49,4,5.84,5.33,2.55,1.43,5.11,2.86,7.7,4.21.79.41.69.8.38,1.46-.38.81-.75.56-1.33.23-3.06-1.78-6.16-3.5-9.23-5.27A6.13,6.13,0,0,1,36.9,82.63Z"/><path class="cls-8" d="M90.89,38.78c1.07,1.37,1.07,1.87,0,3.34L77,55.92c-.79.79-1.56,1.59-2.37,2.36-1.1,1-2.08,1.08-3.14,0Q67.82,54.69,64.22,51A2,2,0,1,1,67,48.22c1.75,1.71,3.5,3.4,5.16,5.19.74.79,1.12.66,1.82,0,4.62-4.68,9.29-9.3,13.92-14A2.3,2.3,0,0,1,90.89,38.78Z"/></svg>