<svg id="레이어_1" data-name="레이어 1" xmlns="http://www.w3.org/2000/svg" viewBox="0 0 154.08 150"><defs><style>.cls-1{fill:#fecf64;}.cls-2{fill:#daecfe;}.cls-3{fill:#b5dbfe;}.cls-4{fill:#fedf7d;}.cls-5{fill:#fac380;}.cls-6{fill:#477b9d;}.cls-7{fill:#dc9873;}.cls-8{fill:#695d67;}.cls-9{fill:#b4dbfe;}.cls-10{fill:#544e55;}.cls-11{fill:#b87359;}.cls-12{fill:#d68760;}.cls-13{fill:#dc636e;}.cls-14{fill:#d94a54;}.cls-15{fill:#d5865f;}.cls-16{fill:#fedf7c;}</style></defs><path class="cls-1" d="M20.28,70.41l1.92.1c-2.65,1.46-3.68,3.68-3.75,6.72-.08,3.65-.77,7.27-1,10.91-.18,3-.72,5.87-.61,8.84.26.62-.21,1-.52,1.36a15.77,15.77,0,0,0-2.76,14.44c.15.57.56,1.14.11,1.75-1.42,0-2.84,0-4.26,0a4.85,4.85,0,0,1-5.07-5.23c.19-3.9.59-7.8.93-11.69S6,90,6.31,86.2s.63-7.8,1.16-11.66c.35-2.56,2.42-4.05,5-4.07Z"/><path class="cls-2" d="M141.45,101.69c1.36,0,2.73.08,4.08,0a4.84,4.84,0,0,1,4.2,1.43v2a2.19,2.19,0,0,1-2,1.27c-.33,0-.66,0-1,0h-34a4.11,4.11,0,0,1-1.67-.21,6.82,6.82,0,0,1-1.29-4.16c.35-.83,1.11-.75,1.79-.77,1.86,0,3.73,0,5.59,0,7.49,0,15,0,22.46,0A2.45,2.45,0,0,1,141.45,101.69Z"/><path class="cls-3" d="M110.88,106q18.06,0,36.11,0a4,4,0,0,0,2.74-.87v3.69a3.3,3.3,0,0,1-3.13,1.45c-11.91-.05-23.81,0-35.71,0A7,7,0,0,1,110.88,106Z"/><path class="cls-4" d="M94.71,78.77c1.45.46,3,0,4.41.26a1.46,1.46,0,0,1,.49,1.27c0,3.67,0,7.34,0,11a2.32,2.32,0,0,1-.18.82c-.5.75-1.21.45-1.88.37-7.85-1.77-17,3.72-18.54,12.94a16,16,0,0,0,.21,6.6c.2.8.7,1.58.34,2.46l-35.55,0c-.33-.51-.1-1,.06-1.49A16,16,0,0,0,31.48,92.45a15.32,15.32,0,0,0-12.6,3.3c-.64.5-1.14,1.46-2.24,1-.53-1.89,0-3.76.18-5.62.36-5,.95-9.88,1.28-14.83a6.49,6.49,0,0,1,4.13-6.08,9.71,9.71,0,0,1,2.58-.15c2.05,0,4.1,0,6.15,0,3.64-.42,5.87,1.55,7.55,4.45C40,76.85,41.72,79,43.25,81.36S46.31,85.8,47.92,88l.95,1.23a5.2,5.2,0,0,0,4.5,2.18q7.08-.07,14.14,0c1.74,0,3.5-.12,5.23,0,2.48.23,4.13-.93,5.45-2.82.17-.23.32-.47.48-.7,1-1.31,2.09-2.62,3-4,.64-.93,1.34-1.82,2-2.73a5.55,5.55,0,0,1,4.93-2.52c.47,0,.93-.09,1.4-.11C91.58,78.72,93.17,78.38,94.71,78.77Z"/><path class="cls-5" d="M141.45,101.69l-24.37,0a2.44,2.44,0,0,1-1.3-2.47c0-2.27,0-4.54,0-6.81V71a5.86,5.86,0,0,1,.6-3.16,1.28,1.28,0,0,0,0-1.46,4.66,4.66,0,0,1-.58-2.59q0-14,0-27.94c0-1.44,0-2.9,1.83-3.41l1.49,0a2.56,2.56,0,0,1,.39,1.88c0,2.22,0,4.43,0,6.64s0,2.32,2.26,2.33c1.08,0,2.17,0,3.25,0s2.08,0,3.12,0c1.68,0,1.83-.16,1.84-1.9,0-2.36,0-4.72,0-7.09a2.52,2.52,0,0,1,.41-1.88c3.08,0,6.15,0,9.23,0,1.72,0,2.47.79,2.47,2.54,0,9.84,0,19.69,0,29.53a2.48,2.48,0,0,1-1.51,2.62c1.36.66,1.52,1.7,1.52,2.91q-.06,14.63,0,29.25A3.5,3.5,0,0,1,141.45,101.69Z"/><path class="cls-6" d="M94.71,78.77a12.27,12.27,0,0,1-4.83,0A2,2,0,0,1,89,77.55Q81.65,60.78,74.35,44c-1.06-2.43-2.1-4.86-3.2-7.27a4.83,4.83,0,0,0-4.8-3.07c-12,0-24,0-36,0-3.38,0-5.13,1.8-5.14,5.2,0,4.68,0,9.36,0,14,0,.18,0,.35,0,.52.05,5.1,0,10.18,0,15.27a2.09,2.09,0,0,1-.49,1.71l-2.52.09c-.64.12-1.31.57-1.92-.1,0-10.54,0-21.09,0-31.64a9.71,9.71,0,0,1,10.06-10q18,0,35.9,0a9.54,9.54,0,0,1,9.35,6.14Q85.16,56.83,94.71,78.77Z"/><path class="cls-7" d="M117.61,32.47a3.61,3.61,0,0,0-1.41,3.31c0,9.42.06,18.83,0,28.24,0,1.38,1.37,2.51,1.09,3.23a8.59,8.59,0,0,0-1.07,3.2q0,14.26,0,28.53a3.93,3.93,0,0,0,.88,2.74c-2,0-3.9,0-5.85,0-.48,0-1-.21-1.36.4a11.13,11.13,0,0,1-2.6-4.61c0-9.27-.08-18.54,0-27.8,0-1.75,0-3.49,0-5.24-.14-9.78-.08-19.57-.06-29.36,0-.7-.05-1.44.66-1.92a2.36,2.36,0,0,1,1.85-.82C112.38,32.45,115,32.46,117.61,32.47Z"/><path class="cls-8" d="M31.57,92.1a16.39,16.39,0,0,1,13.61,16.71A22.37,22.37,0,0,1,44,114.47a16.75,16.75,0,0,1-10.12,9.22,10.05,10.05,0,0,1-2.86.69c-2-1.08-4.11-1.84-5.87-3.36a16.69,16.69,0,0,1,3.74-28A26.28,26.28,0,0,1,31.57,92.1Z"/><path class="cls-8" d="M107.47,98.09a16.27,16.27,0,0,1,2.4,4.08,21.73,21.73,0,0,1,1,3.8,16.38,16.38,0,0,1-14,18.4,38.4,38.4,0,0,1-5.77-3.22,16.71,16.71,0,0,1-4.62-20A17.12,17.12,0,0,1,94.78,93c.87-.42,1.8-.55,2.68-.89l1.65.3c1.73-.12,3,.94,4.43,1.67a19.63,19.63,0,0,1,3.26,2.71C107.13,97.15,107.59,97.47,107.47,98.09Z"/><path class="cls-2" d="M107.47,98.09a19.43,19.43,0,0,0-4-3.76,3.4,3.4,0,0,1-.46-2V26.66c0-.86.46-1.76.24-2.5s-1.52-.12-2.06-.84a8.43,8.43,0,0,1,5.21.14,2,2,0,0,1,1.35,2.09c-.07,2.11,0,4.23,0,6.34,0,.46-.15,1,.21,1.35a16.39,16.39,0,0,0-.17,1.69q0,14.9,0,29.79v.14c0,1.31.94,2.44.13,4-.62,1.19-.13,3-.13,4.48V91.93c0,1.56,0,3.12,0,4.68C107.72,97.11,107.91,97.66,107.47,98.09Z"/><path class="cls-9" d="M101.16,23.32h3.4c-1.41,1.38-1.12,3-1.12,4.47V94.33L99.11,92.4q0-6.69,0-13.37c0-.76,0-1.51,0-2.27V26C99.17,24.27,99.62,23.68,101.16,23.32Z"/><path class="cls-10" d="M97.46,92.1c-.22.53-.76.52-1.18.69-6.06,2.38-9.71,6.68-10.76,13.19a16.28,16.28,0,0,0,10.77,17.67c.15,0,1.33-.25.62.72-8.08.75-13.77-2.71-17.36-9.86-1.79-5.06-1.72-10,1.13-14.69A16.09,16.09,0,0,1,97.46,92.1Z"/><path class="cls-10" d="M13.68,114.53a17.91,17.91,0,0,1-.56-10.81A18.92,18.92,0,0,1,16.85,97,17,17,0,0,1,29.2,91.82a21.26,21.26,0,0,1,2.37.28c-.2.47-.66.49-1.05.63C24.75,94.91,21,99,19.79,105a15.66,15.66,0,0,0,3.37,13.45,17.16,17.16,0,0,0,7.66,5.28c.45.17.7.23.2.63-7.8.62-13.45-2.49-17-9.39C13.9,114.83,13.78,114.68,13.68,114.53Z"/><path class="cls-11" d="M125,43.75c-1.51,0-3,0-4.53,0-1,.05-1.43-.35-1.42-1.39,0-3.31,0-6.61,0-9.91l5.63,0a1.69,1.69,0,0,1,.44,1.3c.06,3.11,0,6.22.06,9.33A.92.92,0,0,1,125,43.75Z"/><path class="cls-12" d="M125,43.75c-.52-1.9-.2-3.84-.26-5.76s0-3.68,0-5.52h5.67c0,3.34,0,6.67,0,10,0,1-.38,1.35-1.34,1.31C127.74,43.74,126.37,43.76,125,43.75Z"/><path class="cls-8" d="M44.93,57.17c2.38.69,3.3,1.92,3.31,4.57,0,6.43,0,12.86,0,19.29,0,1.4.36,1.72,1.71,1.69,4.35-.09,8.71,0,13.06,0,3.24,0,4.77,1.6,4.62,4.83a1.86,1.86,0,0,1-1.45.43c-6,0-11.91,0-17.86,0a5.87,5.87,0,0,1-.84-.13L43,81.52A12.6,12.6,0,0,1,42.78,79c0-5.67,0-11.34,0-17C42.8,60.08,43.11,58.28,44.93,57.17Z"/><path class="cls-6" d="M79,87.9c-3.41-5.27-6.86-10.52-10.22-15.82-.68-1.07-1.1-1.23-1.77-.07a10.85,10.85,0,0,1-1.21,1.58,2.26,2.26,0,0,1-3.13.56,2.18,2.18,0,0,1-.32-3.25c2.13-2.83,4.3-5.63,6.46-8.44.55-.71,1.07-1.44,1.66-2.12A2.14,2.14,0,0,1,73.65,60a2.1,2.1,0,0,1,.3,3c-.81,1.16-1.7,2.27-2.58,3.38a1.06,1.06,0,0,0-.11,1.48c3.55,5.4,7.06,10.83,10.58,16.26A22,22,0,0,1,79,87.9Z"/><path class="cls-13" d="M24.78,52.88c3.16,0,6.32,0,9.48.08,2.89,0,4.14,1.29,4.15,4.14l0,2.83a2.61,2.61,0,0,1,.42,1.88c0,3.66,0,7.33,0,11,0,.69.11,1.43-.5,2-.47-.64-1-1.27-1.41-1.92a5.9,5.9,0,0,0-5.65-2.43,2.9,2.9,0,0,1-.43-2.16c0-4.25,0-8.49,0-12.74,0-1.82-.11-1.86-1.92-2-1.39-.06-2.84.38-4.15-.42Z"/><path class="cls-14" d="M24.78,53.16c1.7,0,3.41.06,5.1,0,1.12-.05,1.46.3,1.45,1.43-.06,5.29,0,10.58,0,15.87H24.72Z"/><path class="cls-10" d="M38.35,74.78l.09-14.85c1.27-3,3.82-3,6.49-2.76-2.11,2.29-1.69,5.12-1.7,7.86,0,5,0,10,0,15,0,.5.17,1-.21,1.5C41.4,79.31,39.78,77.11,38.35,74.78Z"/><path class="cls-10" d="M47.45,87.85c.39-.51,1-.33,1.45-.33H67.6l.05,4.25c-5.09,0-10.18.09-15.26,0C49.83,91.75,48.59,89.8,47.45,87.85Z"/><path class="cls-11" d="M125,78.41c-1.55,0-3.1,0-4.65,0-.89,0-1.3-.3-1.29-1.22,0-3.06,0-6.12,0-9.18,0-.74.27-1,1-1,1.55,0,3.1,0,4.65,0a1.72,1.72,0,0,1,.45,1.3c0,3.15,0,6.31,0,9.47A1.14,1.14,0,0,1,125,78.41Z"/><path class="cls-15" d="M125,78.41a3.1,3.1,0,0,1-.27-1.65q0-4.83,0-9.65c1.52,0,3,0,4.54,0,1,0,1.2.35,1.18,1.25,0,2.92,0,5.85,0,8.78,0,1-.32,1.39-1.32,1.35C127.76,78.38,126.38,78.42,125,78.41Z"/><path class="cls-1" d="M32.43,113.36a6.23,6.23,0,0,1-8.21-.74,6.48,6.48,0,0,1-.37-8.42,6.16,6.16,0,0,1,8.34-1.37,1.36,1.36,0,0,1-.4.73C28.64,107.3,28.83,110.25,32.43,113.36Z"/><path class="cls-16" d="M32.43,113.36c-1.68-.22-2.31-1.61-2.76-2.87a6.26,6.26,0,0,1,2.52-7.66A6.19,6.19,0,0,1,32.43,113.36Z"/><path class="cls-1" d="M97.79,113.7a6.33,6.33,0,0,1-8-1.42A6.44,6.44,0,0,1,89.9,104a6.06,6.06,0,0,1,8.15-1.13,1.63,1.63,0,0,1-.68,1c-2.43,2-2.42,6.29-.21,8.51C97.5,112.73,98,113.07,97.79,113.7Z"/><path class="cls-16" d="M97.79,113.7c-.46-.54-.93-1-1.36-1.61a6.4,6.4,0,0,1,1.62-9.25A6.25,6.25,0,0,1,97.79,113.7Z"/></svg>