<svg id="레이어_1" data-name="레이어 1" xmlns="http://www.w3.org/2000/svg" viewBox="0 0 154.08 150"><defs><style>.cls-1{fill:#ebba5d;}.cls-2{fill:#d9e2ec;}.cls-3{fill:#e4a74c;}.cls-4{fill:#edf2f8;}.cls-5{fill:#407092;}.cls-6{fill:#f4dd8d;}.cls-7{fill:#ecd07a;}.cls-8{fill:#d65950;}.cls-9{fill:#406f92;}.cls-10{fill:#365f7e;}.cls-11{fill:#365e7d;}.cls-12{fill:#c94844;}.cls-13{fill:#b2e49e;}.cls-14{fill:#94d5a3;}.cls-15{fill:#f4dc8c;}.cls-16{fill:#f3db8b;}</style></defs><path class="cls-1" d="M20.11,103.24a36.15,36.15,0,0,1,1.58-6.65C25.62,86.76,32.78,81,43.29,79.45a25.2,25.2,0,0,1,16.52,3.36c.16.09.33.15.5.23a8.82,8.82,0,0,1,3.25,2A26.64,26.64,0,0,1,72.75,101a11.48,11.48,0,0,1,.24,4.29c-.38,1.05-.52,2.16-.8,3.23a26.61,26.61,0,0,1-21.88,19.3A26.21,26.21,0,0,1,29.61,122a25.78,25.78,0,0,1-9.17-15,5.43,5.43,0,0,0-.33-1.83Z"/><path class="cls-2" d="M133.94,122.37a24.49,24.49,0,0,1-.09,3.64,6.81,6.81,0,0,1-4.88,5.62c-.21.07-.45.06-.58.29H66.14a6.23,6.23,0,0,1-5.21-4.28c.68-1.11,1.83-1.8,2.64-1.59a5.9,5.9,0,0,0,3.81,1.29h59.78a6.3,6.3,0,0,0,5.94-3.93C133.3,123,133.32,122.44,133.94,122.37Z"/><path class="cls-3" d="M63.25,126,61,127.65a8.19,8.19,0,0,1-3.32,2.12,19.09,19.09,0,0,1-8.57,2,.44.44,0,0,0-.3.12H44.12A23.61,23.61,0,0,1,38,130.81q-13.74-5.06-17.44-19.19c-.3-1.15-.16-2.34-.41-3.49v-2.89c.7,1.11.71,2.44,1.08,3.66A26.11,26.11,0,0,0,26.89,119a25.61,25.61,0,0,0,13.84,8.07,26.22,26.22,0,0,0,31.64-20.75,2.06,2.06,0,0,1,.43-1.11c.58.7.22,1.52.32,2.29a4,4,0,0,1-.09.92,28.45,28.45,0,0,1-2.77,9.18,27.92,27.92,0,0,1-6.15,7.92C63.87,125.77,63.63,126,63.25,126Z"/><path class="cls-4" d="M72.83,107.8l0-2.56A25.52,25.52,0,0,0,66.42,88.3,29.51,29.51,0,0,0,60.31,83c.45-.38.26-.9.26-1.35q0-12.25,0-24.5a3,3,0,0,1,2-.33H132a2.74,2.74,0,0,1,1.92.34v65.16c-.69,1.59-1.38,3.17-2.93,4.17a6.21,6.21,0,0,1-3.4,1.16q-30.33,0-60.66,0c-1.39,0-2.88-.23-3.7-1.7a26.75,26.75,0,0,0,9-14.77c.19-.89.36-1.79.54-2.69.46.49.33,1.11.35,1.69a36.09,36.09,0,0,0,.12,5.3,2.18,2.18,0,0,0,2.33,1.65c2.06,0,4.13,0,6.2,0A2.09,2.09,0,0,0,84,114.9c0-1,0-2,0-3s0-2.28,0-3.43a2.06,2.06,0,0,0-2.12-2.21c-2.18-.11-4.35-.07-6.53,0a2.33,2.33,0,0,0-1.81.92C73.37,107.43,73.2,107.73,72.83,107.8Z"/><path class="cls-5" d="M133.94,57.2c-.55,0-1.11.06-1.66.06H61.81c-.41,0-.81,0-1.22-.06V25.74c0-4.86,2.78-7.65,7.63-7.65q29.11,0,58.23,0c4.64,0,7.5,2.83,7.5,7.44Q134,41.37,133.94,57.2Z"/><path class="cls-6" d="M28.78,104.57a16.74,16.74,0,0,1,7.13-13.35,16.81,16.81,0,0,1,11.18-3.5,17.46,17.46,0,0,1,15,9.16,14.12,14.12,0,0,1,2.08,6.57c.36,2.41-.55,4.54-1.68,6.53-3.06,5.38-7.63,8.75-13.84,9.46A18.08,18.08,0,0,1,28.9,105.78,4.92,4.92,0,0,1,28.78,104.57Z"/><path class="cls-7" d="M28.78,104.57c.65,1.56.9,3.25,1.71,4.76a17.87,17.87,0,0,0,31.44,1,14.86,14.86,0,0,0,2.21-6.88,7.59,7.59,0,0,1,.17,3.6,17.83,17.83,0,0,1-15.86,16.22,17.24,17.24,0,0,1-9.76-1.67,17.47,17.47,0,0,1-6.4-5.18,18.89,18.89,0,0,1-3.72-10.92C28.55,105.18,28.47,104.83,28.78,104.57Z"/><path class="cls-5" d="M72.83,107.8a2.81,2.81,0,0,1,3-1.89c2,.07,3.91,0,5.87,0a2.37,2.37,0,0,1,2.65,2.67c0,1.11,0,2.21,0,3.32A2.11,2.11,0,0,1,82,113.56H75.17a2.31,2.31,0,0,1-1.67-.63c-.4.94.19,2-.49,2.79a17,17,0,0,1-.17-4c0-1.06,0-2.13,0-3.19Z"/><path class="cls-8" d="M110.2,111.92c0-8.15,0-16.3,0-24.44a2.2,2.2,0,0,1,2.35-2.28c2.07,0,4.15,0,6.22,0s3,.77,3,2.93c0,7.6,0,15.19,0,22.78a20.74,20.74,0,0,1-.16,4.85c-.67-.76-.15-1.72-.45-2.59-2.08.75-4.23.29-6.35.4-.73,0-1.47,0-2.21,0A2.11,2.11,0,0,1,110.2,111.92Z"/><path class="cls-5" d="M91.67,115.75a2,2,0,0,1-.17-1.29c0-2,0-4,0-6a2.35,2.35,0,0,1,2.5-2.52c2.18,0,4.37,0,6.55,0a2.34,2.34,0,0,1,2.48,2.54c0,1.14,0,2.29,0,3.44a2.11,2.11,0,0,1-2.32,1.64H93.91a3.2,3.2,0,0,1-1.72-.48C91.77,114,92.38,115,91.67,115.75Z"/><path class="cls-5" d="M91.67,74.17a1.14,1.14,0,0,1-.18-.84c0-2.14,0-4.29,0-6.43a2.35,2.35,0,0,1,2.56-2.55c2.14,0,4.28,0,6.42,0A2.35,2.35,0,0,1,103,66.91c0,1.15,0,2.29,0,3.43A2.19,2.19,0,0,1,100.67,72c-2.26,0-4.51,0-6.77,0a2.18,2.18,0,0,1-1.78-.73C91.85,72.31,92.36,73.33,91.67,74.17Z"/><path class="cls-5" d="M73,74.14A1.79,1.79,0,0,1,72.84,73c0-2,0-4.07,0-6.11a2.35,2.35,0,0,1,2.52-2.5c2.15,0,4.3,0,6.44,0a2.32,2.32,0,0,1,2.56,2.55c0,1.15,0,2.3,0,3.44A2.1,2.1,0,0,1,82,72H75.38a3.51,3.51,0,0,1-1.9-.61C73.1,72.28,73.69,73.33,73,74.14Z"/><path class="cls-9" d="M73,94.85a9.48,9.48,0,0,1-.15-3c0-1.4,0-2.81,0-4.22a2.3,2.3,0,0,1,2.51-2.47c2.22,0,4.44,0,6.66,0a2.2,2.2,0,0,1,2.34,2.38c0,1.22,0,2.44,0,3.66a2.46,2.46,0,0,1-2.41,1.62c-2.2.07-4.41,0-6.61,0a2.79,2.79,0,0,1-1.91-.76C73.2,93.08,73.66,94.05,73,94.85Z"/><path class="cls-5" d="M91.69,95c-.28-.32-.19-.7-.2-1.06q0-3.06,0-6.1c0-1.82.85-2.67,2.64-2.68q3.15,0,6.32,0A2.3,2.3,0,0,1,103,87.81c0,1.14,0,2.29,0,3.43a2.48,2.48,0,0,1-2.43,1.62c-2.22.07-4.44,0-6.66,0a2.87,2.87,0,0,1-1.82-.71C91.85,93.17,92.34,94.18,91.69,95Z"/><path class="cls-5" d="M110.2,70.34c0-1.22-.06-2.43,0-3.65a2.26,2.26,0,0,1,2.32-2.33c2.29,0,4.57,0,6.86,0a2.05,2.05,0,0,1,2.22,1.78,37.72,37.72,0,0,1,0,8c-.68-.84-.17-1.86-.44-2.88a3.48,3.48,0,0,1-2.57.72c-2,0-4,0-6,0A2.18,2.18,0,0,1,110.2,70.34Z"/><path class="cls-10" d="M110.2,70.34a3.18,3.18,0,0,0,3.13,1.35c1.72-.1,3.46,0,5.19,0,1,0,2.09.06,2.74-1.1l.27.16v3.43a2.11,2.11,0,0,1-2.27,1.71c-2.21,0-4.43,0-6.64,0a2.3,2.3,0,0,1-2.45-2.43C110.14,72.41,110.19,71.37,110.2,70.34Z"/><path class="cls-11" d="M73,74.14V70.76c1,1.06,2.18.93,3.35.91,1.62,0,3.25-.07,4.86,0a3,3,0,0,0,3.11-1.35c0,1,0,2.07,0,3.11A2.26,2.26,0,0,1,82,75.87c-2.29,0-4.59,0-6.88,0A2,2,0,0,1,73,74.14Z"/><path class="cls-11" d="M91.67,74.17V70.76c1.06,1.22,2.41.89,3.66.9,1.51,0,3-.07,4.54,0A3.2,3.2,0,0,0,103,70.34c0,1,0,2.07,0,3.1a2.3,2.3,0,0,1-2.44,2.43c-2.22,0-4.43,0-6.65,0A2.11,2.11,0,0,1,91.67,74.17Z"/><path class="cls-11" d="M73,115.72v-3.39c1,1.25,2.34.9,3.55.91,1.55,0,3.11-.06,4.65,0a3,3,0,0,0,3.12-1.34c0,1.07.06,2.15,0,3.22a2.21,2.21,0,0,1-2.21,2.3c-2.34,0-4.67.06-7,0A2,2,0,0,1,73,115.72Z"/><path class="cls-12" d="M110.2,111.92a3,3,0,0,0,3.12,1.34c1.47-.08,3,0,4.42,0,1.27,0,2.59.26,3.79-.95v3.46a2,2,0,0,1-2.14,1.7q-3.45.06-6.89,0a2.26,2.26,0,0,1-2.33-2.32C110.14,114.07,110.19,113,110.2,111.92Z"/><path class="cls-11" d="M91.67,115.75v-3.46c1.24,1.24,2.6.93,3.9.95s2.88-.06,4.31,0a3,3,0,0,0,3.13-1.34c0,1,0,2.07,0,3.1a2.3,2.3,0,0,1-2.44,2.44c-2.22,0-4.44,0-6.66,0A2.1,2.1,0,0,1,91.67,115.75Z"/><path class="cls-11" d="M91.69,95V91.38a3.86,3.86,0,0,0,3.47,1.19c1.36,0,2.73-.07,4.09,0A4.06,4.06,0,0,0,103,91.24c0,1,0,2,0,3a2.22,2.22,0,0,1-2.34,2.39c-2.3,0-4.59,0-6.89,0A2,2,0,0,1,91.69,95Z"/><path class="cls-11" d="M73,94.85V91.32c1.13,1.38,2.42,1.26,3.7,1.25s2.59-.07,3.87,0a4.07,4.07,0,0,0,3.77-1.34c0,1.07.06,2.14,0,3.21a2.11,2.11,0,0,1-2.09,2.16q-3.66.09-7.32,0A1.93,1.93,0,0,1,73,94.85Z"/><path class="cls-13" d="M73,32.27a3.38,3.38,0,0,1,3.58-2.81c3.63,0,7.25,0,10.88,0h30.31a3.44,3.44,0,0,1,3.74,2.62,51.55,51.55,0,0,1,.09,5.42c0,1.59,0,3.19,0,4.78a2.76,2.76,0,0,1-1.78,2.79,5.36,5.36,0,0,1-2.37.49H77a5.12,5.12,0,0,1-3-.83,2.21,2.21,0,0,1-1.15-1.81C72.94,39.37,72.82,35.82,73,32.27Z"/><path class="cls-14" d="M73,32.27l0,9.45a3.24,3.24,0,0,0,3.43,3.48c1,0,2.08,0,3.12,0H117.7a3.78,3.78,0,0,0,3.43-1.66,2.4,2.4,0,0,0,.37-1.46c0-3.33,0-6.67,0-10,.31.34.21.77.21,1.17q0,6.11,0,12.22A3.46,3.46,0,0,1,118,49.23q-20.71,0-41.45,0a3.39,3.39,0,0,1-3.69-3.44c-.07-4.3,0-8.6,0-12.89A2.46,2.46,0,0,1,73,32.27Z"/><path class="cls-3" d="M44.79,108.84v-.11a3.75,3.75,0,0,0-2.18-4.44c-2.25-1.22-2.47-5.05-.68-7.18a4.89,4.89,0,0,1,2.23-1.76c.54-.16.64-.48.65-1a1.64,1.64,0,0,1,1.58-1.8,1.6,1.6,0,0,1,1.89,1.57,1.18,1.18,0,0,0,.95,1.14,4.86,4.86,0,0,1,2.08,1.23,1.6,1.6,0,0,1,.28,2.2,1.58,1.58,0,0,1-2.25.53c-1-.63-1.07-.19-1,.66a5,5,0,0,1,0,.77c-.14,1.64,0,2.76,1.93,3.67,3.31,1.6,3.75,6.36,1.18,9a5.73,5.73,0,0,1-2.56,1.86c-.51.14-.53.52-.56,1-.09,1.32-.66,1.92-1.78,2s-1.6-.51-1.74-1.84c-.06-.55-.25-.78-.8-.85a6.5,6.5,0,0,1-2.91-1.27,1.77,1.77,0,0,1-.57-2.33,1.63,1.63,0,0,1,2.31-.6c1.95.92,1.95.92,1.95-1.3Z"/><path class="cls-15" d="M48.34,111.41v-3.53c0-.21-.05-.52.23-.53s.39.18.52.33A2.51,2.51,0,0,1,48.34,111.41Z"/><path class="cls-16" d="M44.76,99.43v2.22C43.89,100.83,44.14,100.13,44.76,99.43Z"/></svg>