<svg id="레이어_1" data-name="레이어 1" xmlns="http://www.w3.org/2000/svg" viewBox="0 0 154.08 150"><defs><style>.cls-1{fill:#f3fafe;}.cls-2{fill:#75cdf8;}.cls-3{fill:#fec150;}.cls-4{fill:#6bbdf5;}.cls-5{fill:#fedf7c;}.cls-6{fill:#fecf64;}</style></defs><path class="cls-1" d="M94.81,133.53H59.25c-.06-.73.56-.92,1-1.2q4-2.43,8-4.63a3.53,3.53,0,0,0,2.09-3.61c-.08-11.25-.05-5.66,0-16.9,0-2-.08-4.09.11-6.13.44-.9,1-.28,1.35,0,1.34.89,2.52,2,3.81,3s1.6,1,2.87,0,2.35-1.92,3.57-2.83c.4-.29.9-1,1.48-.14a56.82,56.82,0,0,1,.12,6.12c0,11.31,0,5.8,0,17.11a3.32,3.32,0,0,0,2,3.38c2.7,1.41,5.29,3,7.92,4.55C94.11,132.48,94.83,132.69,94.81,133.53Z"/><path class="cls-2" d="M70.78,100.68c0,13.72-.06,10.61,0,24.33a2.48,2.48,0,0,1-1.46,2.55c-3,1.67-6,3.45-9,5.2-.36.22-.84.3-1,.77h-1a3.62,3.62,0,0,1-.26-1.39c0-14.7,0-12.57,0-27.27,0-.17,0-.34,0-.52.69.05.86.66,1.16,1.11,1,1.4,1.32,1.55,2.92,1.1s3.33-1,5-1.46a4.33,4.33,0,0,1,3.09,0c.13-1.54-.28-3.09.24-4.58C70.63,100.3,70.74,100.4,70.78,100.68Z"/><path class="cls-2" d="M94.81,133.53a5,5,0,0,0-1.91-1.3c-2.8-1.66-5.62-3.32-8.48-4.88a1.91,1.91,0,0,1-1.11-1.95c0-13.28,0-9.74,0-23l0-1.7c0-.27.13-.37.38-.19.54,1.47.11,3,.27,4.59a5,5,0,0,1,3.55.15c1.55.43,3.07.94,4.62,1.36s1.86.23,2.73-1c.33-.47.49-1.15,1.23-1.22q0,7.77,0,15.53c0,9.57,0,2.3,0,11.87a3.85,3.85,0,0,1-.26,1.78Z"/><path class="cls-3" d="M83.57,100.45l-.29.23c-1.6,1.25-3.22,2.47-4.8,3.74a2,2,0,0,1-2.9,0c-1.57-1.29-3.2-2.49-4.8-3.73l-.29-.24a5.12,5.12,0,0,0-3.79.1c-1.24.42-2.5.74-3.76,1.09-3.1.86-4.08.32-5-2.74q-1.15-2.19-2.32-4.37a2.34,2.34,0,0,0-2-1.17c-2.17-.21-4.32-.51-6.48-.72a2,2,0,0,1-2-2.13c-.22-2.16-.53-4.32-.73-6.48A2.4,2.4,0,0,0,43,82c-1.92-1-3.81-2.11-5.73-3.13a2,2,0,0,1-1.14-2.69c.63-2,1.14-4.11,1.77-6.14a2.82,2.82,0,0,0-.6-2.9c-1.35-1.59-2.6-3.27-3.93-4.88a2.09,2.09,0,0,1,0-2.95c1.29-1.59,2.54-3.21,3.86-4.77a3,3,0,0,0,.62-3.14c-.64-2-1.14-4-1.76-6a2,2,0,0,1,1.08-2.61c1.95-1.07,3.88-2.17,5.84-3.21a2.39,2.39,0,0,0,1.35-2.06c.19-2.12.49-4.23.72-6.35.17-1.53.62-2.09,2.15-2.29,1.86-.24,3.72-.46,5.58-.57a3.42,3.42,0,0,0,3.3-2.06c.79-1.74,1.81-3.38,2.74-5,.8-1.44,1.4-1.69,3-1.24,2,.58,4,1.13,6,1.78a2.57,2.57,0,0,0,2.65-.53c1.58-1.3,3.18-2.57,4.78-3.85,1.43-1.15,2-1.15,3.44,0s3.14,2.48,4.68,3.77a2.72,2.72,0,0,0,2.88.58c1.93-.65,3.91-1.18,5.87-1.75,1.59-.45,2.19-.19,3,1.24,1,1.79,2,3.56,2.94,5.39a2.79,2.79,0,0,0,2.45,1.66c1.9.18,3.8.39,5.71.57s2.47.65,2.68,2.62.52,4.14.72,6.22a2.2,2.2,0,0,0,1.23,1.86c1.91,1,3.82,2.08,5.73,3.13,1.38.76,1.65,1.38,1.23,2.87-.55,2-1.07,3.94-1.7,5.89a3,3,0,0,0,.63,3.13c1.26,1.49,2.47,3,3.69,4.57,1.07,1.34,1.07,2,0,3.35-1.26,1.61-2.53,3.22-3.84,4.79a2.63,2.63,0,0,0-.55,2.66c.61,2.09,1.16,4.19,1.81,6.27a2,2,0,0,1-1.14,2.69c-1.88,1-3.73,2.07-5.62,3.07a2.55,2.55,0,0,0-1.51,2.24c-.17,2.12-.49,4.23-.71,6.35a2,2,0,0,1-2,2.13c-2.21.21-4.41.5-6.61.73a2.16,2.16,0,0,0-1.85,1c-.82,1.48-1.6,3-2.4,4.48-.13.28-.15.59-.25.87A2.81,2.81,0,0,1,92,101.88c-1.55-.41-3.11-.83-4.63-1.34A5.12,5.12,0,0,0,83.57,100.45Z"/><path class="cls-4" d="M58,98.89a1.32,1.32,0,0,1,.24.29c1.41,2.66,1.45,3.14,5,2,1.61-.5,3.25-.91,4.85-1.42a2.07,2.07,0,0,1,2.45.64v5.08c-2.31-1-4.19.41-6.22.78A19.89,19.89,0,0,0,62,107c-1.69.53-2.22.32-3.11-1.19-.28-.48-.61-.94-.92-1.41C58,102.53,58,100.71,58,98.89Z"/><path class="cls-4" d="M83.57,100.45A2.05,2.05,0,0,1,86,99.8c1.9.59,3.82,1.11,5.73,1.66,2.14.62,2.57.44,3.65-1.49.21-.37.45-.72.68-1.08,0,1.82,0,3.64,0,5.46-.32.51-.66,1-1,1.53-.83,1.36-1.39,1.57-2.92,1.11-1.83-.55-3.66-1.06-5.48-1.61a3.7,3.7,0,0,0-3.11.23Z"/><path class="cls-5" d="M58.2,86.3A30.64,30.64,0,0,1,45.9,67.21a30.22,30.22,0,0,1,2.94-21.16A30.9,30.9,0,0,1,71,29.57a30,30,0,0,1,15.14.78,19.9,19.9,0,0,1,5.24,5,30.3,30.3,0,0,1,6.79,16.56c1,11.21-2.72,20.64-11.29,28a30.6,30.6,0,0,1-17,7.35,31.05,31.05,0,0,1-10.52-.51A4.21,4.21,0,0,1,58.2,86.3Z"/><path class="cls-6" d="M58.2,86.3a51.21,51.21,0,0,0,9.18.82A30.3,30.3,0,0,0,82.67,82.6a30.5,30.5,0,0,0,14.27-19A30.76,30.76,0,0,0,93.17,38.5a28.05,28.05,0,0,0-5.76-6.81,11.17,11.17,0,0,1-1.23-1.34,26.35,26.35,0,0,1,10.16,5.07,31,31,0,0,1,12.23,20.63A30.79,30.79,0,0,1,102,80.58,30.91,30.91,0,0,1,82.36,92.2a30.51,30.51,0,0,1-18.43-2.38,33.82,33.82,0,0,1-4.79-2.64A2.35,2.35,0,0,1,58.2,86.3Z"/><path class="cls-3" d="M71.5,76.1c-.4,0-.63-.27-.87-.52l-1.85-1.84c-4.23-4.14-8.44-8.3-12.7-12.41-.84-.81-.83-1.32,0-2.1,1.56-1.45,3.06-3,4.53-4.52.64-.67,1.09-.62,1.72,0,2.62,2.67,5.28,5.31,7.94,8,1.14,1.14,1.35,1.15,2.53,0q6.48-6.46,13-12.92c1.14-1.13,2.37-2.18,3.52-3.3.55-.53,1-.41,1.43.08,1.62,1.64,3.25,3.28,4.91,4.89.48.47.5.8,0,1.28-3.77,3.61-7.35,7.41-11.18,11-4,3.78-7.85,7.79-11.77,11.7C72.34,75.68,72.06,76.12,71.5,76.1Z"/></svg>