<svg id="레이어_1" data-name="레이어 1" xmlns="http://www.w3.org/2000/svg" viewBox="0 0 154.08 150"><defs><style>.cls-1{fill:#fe7c4a;}.cls-2{fill:#fee78b;}.cls-3{fill:#fed35e;}.cls-4{fill:#fb5e32;}.cls-5{fill:#febd3b;}.cls-6{fill:#fefefe;}.cls-7{fill:#fe996b;}.cls-8{fill:#fe7d4a;}</style></defs><path class="cls-1" d="M56.36,75.51c-2.23-3.53-4.51-7-6.68-10.59A32.09,32.09,0,0,1,71.92,16.48a10.3,10.3,0,0,0,2.59-.41H80c1,.45,2.23.19,3.25.68A24.81,24.81,0,0,0,86.14,18a25.08,25.08,0,0,1,9.57,8.42A35.74,35.74,0,0,1,102,43.48a40.94,40.94,0,0,1-4.09,23c-4.42,8.77-8.69,17.62-13,26.44-1.9,3.9-3.92,7.74-5.7,11.69a2.2,2.2,0,0,1-1.87.86,4,4,0,0,1-3.86-2.22q-5.62-9-11.28-17.89c-1.66-2.62-3.28-5.27-5-7.88A4.07,4.07,0,0,1,56.36,75.51Z"/><path class="cls-2" d="M77.27,105.19a2.59,2.59,0,0,0,1.85-.71c4.48-7,8.87-14.12,13.36-21.14,1.47-2.29,2.85-4.63,4.35-6.9.22-.33.35-.8.9-.75l.3.19c1.38,6.21,2.67,12.44,4,18.67q2.22,10.45,4.45,20.92c.15.68.53,1.39,0,2.1l-23.2,13.12c-1.57.88-3.13,1.78-4.71,2.65a2.51,2.51,0,0,1-1.58.57,2,2,0,0,1-.36-1.53q0-12.72,0-25.44C76.68,106.31,76.56,105.6,77.27,105.19Z"/><path class="cls-3" d="M77.27,105.19a2.36,2.36,0,0,0-.23,1.45q0,13.64,0,27.27a1.59,1.59,0,0,1-1.08-.32l-28.37-16a1.19,1.19,0,0,1-.15-1.19q3.1-14.73,6.26-29.43,1-4.83,2-9.66a5,5,0,0,1,.57-1.61,1.27,1.27,0,0,1,.06-.18Q65,89.25,73.66,103C74.51,104.35,75.55,105.3,77.27,105.19Z"/><path class="cls-2" d="M56.3,75.69a72.46,72.46,0,0,1-1.41,7.16c-1.48,7.11-3,14.21-4.54,21.32q-1.34,6.26-2.66,12.51c-.06.29-.07.6-.11.9L25.86,129.77c-1.14.64-2.29,1.24-3.41,1.91a1.78,1.78,0,0,1-2.65-2.22c.49-1.49,1.08-3,1.63-4.41Q28.29,107,35.13,88.9a5,5,0,0,1,2.46-2.69C43.85,82.74,50.07,79.2,56.3,75.69Z"/><path class="cls-3" d="M106.52,117.57c-.64-3.09-1.27-6.19-1.92-9.28q-2.26-10.77-4.55-21.55-1.06-5-2.16-10c-.07-.32-.19-.59.14-.82q5.52,3.12,11,6.23c4.53,12.21,9.2,24.36,13.82,36.52q1.66,4.41,3.34,8.81c.14.38.38.78.07,1.19l-17.48-9.8Z"/><path class="cls-4" d="M97.73,75.69c-2.16,3-4,6.24-6,9.36C87.86,91.13,84,97.23,80.2,103.31a3.2,3.2,0,0,1-1.08,1.17c-.27-.44.13-.71.28-1,3.38-6.87,6.79-13.73,10.17-20.6,3-6.15,6.06-12.29,9-18.49a37,37,0,0,0,3.15-11.53,39.81,39.81,0,0,0,.14-7.79,35.2,35.2,0,0,0-8.29-20.9,24.38,24.38,0,0,0-11-7.29l.67-.11A29.39,29.39,0,0,1,95.54,22a32,32,0,0,1,8.77,43.1c-2,3.24-4,6.42-6,9.63C98.06,75,97.9,75.35,97.73,75.69Z"/><path class="cls-5" d="M126.31,128.63c-1.59-4.24-3.17-8.5-4.78-12.74-2.39-6.32-4.81-12.62-7.2-18.94q-2.58-6.8-5.13-13.6c-.14-.37-.6-.78-.12-1.24,2.84,1.59,5.67,3.18,8.52,4.75a2.9,2.9,0,0,1,1.2,1.75l9.61,25.32q2.76,7.3,5.53,14.6a10.37,10.37,0,0,1,.42,1.18,1.77,1.77,0,0,1-2.57,2.06Z"/><path class="cls-6" d="M94.83,48.16a17.79,17.79,0,1,1-17.7-17.81A17.8,17.8,0,0,1,94.83,48.16Z"/><path class="cls-7" d="M78.47,58.69a9.6,9.6,0,0,1-7.67-1.87,10.6,10.6,0,0,1-3.75-12.47,10.82,10.82,0,0,1,11.33-6.84,2.1,2.1,0,0,1,.53.19c-.29.39-.06.71.13,1A15.44,15.44,0,0,1,80.79,46a43.92,43.92,0,0,1-.05,5.62A16.55,16.55,0,0,1,78.47,58.69Z"/><path class="cls-8" d="M78.47,58.69c-.21-.06-.5-.06-.24-.41a12.24,12.24,0,0,0,2.2-6.87,29.81,29.81,0,0,0-.61-10,12.63,12.63,0,0,0-1.74-3.63l.83-.08c4.17.49,7.91,4.21,8.68,8.63A10.76,10.76,0,0,1,79.38,58.6,5.61,5.61,0,0,1,78.47,58.69Z"/></svg>