<svg xmlns="http://www.w3.org/2000/svg" xmlns:xlink="http://www.w3.org/1999/xlink" viewBox="0 0 481.38 121.74"><defs><style>.cls-1{isolation:isolate;}.cls-2{fill:url(#무제_그라디언트_3);}.cls-3{fill:url(#무제_그라디언트_15);}.cls-4,.cls-6{fill:#3e3a39;}.cls-4{mix-blend-mode:hue;}.cls-5{fill:#4c4c4c;}.cls-7{fill:#9824bb;}</style><linearGradient id="무제_그라디언트_3" x1="12.56" y1="98.6" x2="98.6" y2="12.56" gradientUnits="userSpaceOnUse"><stop offset="0" stop-color="#b135d3"/><stop offset="0.23" stop-color="#a92fca"/><stop offset="0.6" stop-color="#9220b2"/><stop offset="1" stop-color="#720b90"/></linearGradient><linearGradient id="무제_그라디언트_15" x1="51.07" y1="60.87" x2="70.67" y2="60.87" xlink:href="#무제_그라디언트_3"/></defs><g class="cls-1"><g id="레이어_1" data-name="레이어 1"><path class="cls-2" d="M60.87,121.74a60.87,60.87,0,1,1,60.87-60.87,9.7,9.7,0,0,1-19.39,0,41.48,41.48,0,1,0-41.48,41.48,9.7,9.7,0,0,1,0,19.39Z"/><path class="cls-3" d="M70.67,60.87a9.8,9.8,0,1,1-9.8-9.8A9.8,9.8,0,0,1,70.67,60.87Z"/><path class="cls-4" d="M172.5,39.38H161.22l-13.43,43h11l2.75-10.28H172l2.75,10.28H186ZM164,62.92l.67-2.52c.73-2.61,1.44-5.31,2.1-8,0,0,0,0,0,0,.67,2.65,1.36,5.4,2.09,7.92l.67,2.53Z"/><rect class="cls-5" x="305.49" y="38.7" width="10.41" height="44.35"/><path class="cls-5" d="M334.32,65c0-2.2-.13-4.51-.3-6.78l.89,2L346.75,83h10.32V38.7H346.7v18c0,2.09.12,4.32.28,6.54l-.77-1.73L334.32,38.7H323.94V83h10.38Z"/><path class="cls-6" d="M203.33,83.12c11,0,16.54-6.81,16.54-20.25V39.38H209.51v24.2c0,8.53-3.12,9.68-6.18,9.68s-6-1.15-6-9.68V39.38H186.69V62.87c0,13.44,5.6,20.25,16.64,20.25"/><polygon class="cls-6" points="234.63 82.36 245.3 82.36 245.3 48.96 256.39 48.96 256.39 39.38 223.63 39.38 223.63 48.96 234.63 48.96 234.63 82.36"/><path class="cls-6" d="M275.64,38.62c-11.49,0-18.92,8.67-18.92,22.09s7.61,22.41,18.92,22.41,18.91-9,18.91-22.41-7.42-22.09-18.91-22.09m8.08,22.09c0,7.74-3.1,12.55-8.08,12.55s-8.08-4.81-8.08-12.55,3-12.28,8.08-12.28,8.08,4.59,8.08,12.28"/><rect class="cls-5" x="305.49" y="38.7" width="10.41" height="44.35"/><path class="cls-5" d="M334.32,65c0-2.2-.13-4.51-.3-6.78l.89,2L346.75,83h10.32V38.7H346.7v18c0,2.09.12,4.32.28,6.54l-.77-1.73L334.32,38.7H323.94V83h10.38Z"/><rect class="cls-7" x="305.49" y="38.7" width="10.41" height="44.35"/><path class="cls-7" d="M334.32,65c0-2.2-.13-4.51-.3-6.78l.89,2L346.75,83h10.32V38.7H346.7v18c0,2.09.12,4.32.28,6.54l-.77-1.73L334.32,38.7H323.94V83h10.38Z"/><polygon class="cls-7" points="389.96 38.94 381.84 71.39 373.73 38.94 361.11 38.94 374.63 83.65 378.78 83.65 384.91 83.65 389.06 83.65 402.58 38.94 389.96 38.94"/><polygon class="cls-7" points="470.38 38.94 470.38 66.72 458.84 38.94 455.59 38.94 450 38.94 444.6 38.94 444.6 83.65 455.59 83.65 455.59 53.23 467.5 83.65 470.38 83.65 477.41 83.65 481.38 83.65 481.38 38.94 470.38 38.94"/><polygon class="cls-7" points="418.81 75 418.81 64.9 436.84 64.9 436.84 56.25 418.81 56.25 418.81 47.59 437.38 47.59 437.38 38.94 406.91 38.94 406.91 46.15 406.91 47.59 406.91 56.25 406.91 64.9 406.91 75 406.91 76.62 406.91 83.65 437.92 83.65 439 75 418.81 75"/></g></g></svg>