<svg width="53" height="53" viewBox="0 0 53 53" fill="none" xmlns="http://www.w3.org/2000/svg">
<path d="M46.3752 4.41699H6.62516C4.196 4.41699 2.2085 6.40449 2.2085 8.83366V35.3337C2.2085 37.7628 4.196 39.7503 6.62516 39.7503H22.0835V44.167H17.6668V48.5837H35.3335V44.167H30.9168V39.7503H46.3752C48.8043 39.7503 50.7918 37.7628 50.7918 35.3337V8.83366C50.7918 6.40449 48.8043 4.41699 46.3752 4.41699ZM46.3752 35.3337H6.62516V8.83366H46.3752V35.3337Z" fill="black"/>
<path d="M32 12.5L35.1487 15.7442L28.4387 22.6575L22.9387 16.9908L12.75 27.5025L14.6887 29.5L22.9387 21L28.4387 26.6667L37.1012 17.7558L40.25 21V12.5H32Z" fill="black"/>
</svg>
