<?xml version="1.0" ?><svg id="Layer_1" style="enable-background:new 0 0 91 91;" version="1.1" viewBox="0 0 91 91" xml:space="preserve" xmlns="http://www.w3.org/2000/svg" xmlns:xlink="http://www.w3.org/1999/xlink"><g><path d="M43.9,49.5c0,0-0.1,0-0.1,0c-0.5,0-0.9-0.3-1.2-0.7l-7-9.6l2.7-2l5.8,8L62,26.9c-2.8-3.2-7.8-6.9-15.8-6.9   C34.5,20,25,29.6,25,41.3c0,9.6,6.7,18.2,15.9,20.6l1.8,4.8c-5,0.3-13.4,1.5-13.4,5.7c0,5.7,15.2,5.9,17,5.9s17-0.2,17-5.9   c0-4.3-8.5-5.4-13.5-5.7l1.7-4.7c9.4-2.3,16.1-10.9,16.1-20.6c0-4-1.3-8.1-3.5-11.6L45.1,49C44.8,49.3,44.3,49.5,43.9,49.5z    M59.7,72.4c-1,1-5.9,2.5-13.5,2.5c-7.5,0-12.4-1.5-13.5-2.5c0.9-0.9,5-2.2,11.2-2.4l1.1,2.9c0.2,0.5,0.6,0.8,1.2,0.8c0,0,0,0,0,0   c0.5,0,1-0.3,1.2-0.8l1-2.9C54.7,70.2,58.8,71.5,59.7,72.4z"/><path d="M65.5,23.3L62,26.9c0.1,0.1,0.2,0.3,0.4,0.4c0.6,0.7,1.2,1.5,1.7,2.3l3.9-4L65.5,23.3z"/></g></svg>